<svg width="120" height="30" viewBox="0 0 120 30" fill="none" xmlns="http://www.w3.org/2000/svg">
<path d="M0 15.5272C0 11.3099 1.5 7.76358 4.5 4.98403C7.5 2.20447 11.5 0.86262 16.6 0.86262C22.4 0.86262 26.8 2.49201 29.8 5.7508C32.2 8.33866 33.4 11.5974 33.4 15.3355C33.4 19.6486 31.9 23.099 29 25.8786C26 28.6581 21.9 30 16.7 30C12 30 8.2 28.8498 5.4 26.5495C1.8 23.77 0 20.032 0 15.5272ZM11.2 15.4313C11.2 17.9233 11.7 19.7444 12.8 20.9904C13.8 22.1406 15.2 22.8115 16.8 22.8115C18.4 22.8115 19.7 22.2364 20.8 21.0863C21.8 19.9361 22.3 18.0192 22.3 15.4313C22.3 13.0351 21.8 11.2141 20.7 10.0639C19.7 8.91374 18.4 8.33866 16.8 8.33866C15.2 8.33866 13.8 8.91374 12.8 10.1597C11.7 11.2141 11.2 13.0351 11.2 15.4313Z" fill="white"/>
<path d="M67.2 29.3291H56.8V24.8243C55.2 26.6454 53.7 27.9872 52.1 28.754C50.5 29.5208 48.6 29.9042 46.3 29.9042C43.2 29.9042 40.8 29.0415 39.1 27.2204C37.4 25.4952 36.5 22.7157 36.5 19.0735V1.4377H47.7V16.7732C47.7 18.4984 48 19.7444 48.7 20.5112C49.4 21.278 50.3 21.6613 51.5 21.6613C52.8 21.6613 53.9 21.1821 54.8 20.2236C55.6 19.2652 56.1 17.4441 56.1 14.9521V1.53355H67.2V29.3291V29.3291Z" fill="white"/>
<path d="M70.3998 1.4377H97.3998V7.66773L82.6998 22.0447H98.2998V29.3291H69.2998V22.4281L83.2998 8.72204H70.3998V1.4377Z" fill="white"/>
<path d="M108.8 21.5655C102.6 21.5655 97.5996 16.7732 97.5996 10.8307C97.5996 4.88818 102.5 0 108.8 0C115 0 120 4.79233 120 10.7348C120 16.6773 115 21.5655 108.8 21.5655ZM120 21.6613C120 18.115 117 15.3355 113.4 15.3355C109.7 15.3355 106.8 18.2109 106.8 21.6613C106.8 25.1118 109.8 27.9872 113.4 27.9872C117 27.9872 120 25.2077 120 21.6613Z" fill="#FFD200"/>
</svg>
